<svg width="17" height="17" viewBox="0 0 17 17" fill="none" xmlns="http://www.w3.org/2000/svg">
<path d="M12.7068 8.92168C12.7002 7.70313 13.2514 6.7834 14.367 6.10605C13.7428 5.21289 12.7998 4.72148 11.5547 4.6252C10.376 4.53223 9.0877 5.3125 8.61621 5.3125C8.11816 5.3125 6.97598 4.6584 6.07949 4.6584C4.22676 4.68828 2.25781 6.13594 2.25781 9.08105C2.25781 9.95098 2.41719 10.8497 2.73594 11.7771C3.16094 12.9957 4.69492 15.984 6.29531 15.9342C7.13203 15.9143 7.72305 15.3398 8.81211 15.3398C9.86797 15.3398 10.4158 15.9342 11.3488 15.9342C12.9625 15.9109 14.3504 13.1949 14.7555 11.973C12.5906 10.9537 12.7068 8.98477 12.7068 8.92168ZM10.8275 3.46973C11.734 2.39395 11.651 1.41445 11.6244 1.0625C10.8242 1.10898 9.89785 1.60703 9.36992 2.22129C8.78887 2.87871 8.44688 3.69219 8.51992 4.60859C9.38652 4.675 10.1768 4.23008 10.8275 3.46973Z" fill="#292524"/>
</svg>
