<svg width="141" height="54" viewBox="0 0 141 54" fill="none" xmlns="http://www.w3.org/2000/svg">
<path d="M0.396786 51.0039V3.31999C0.396786 1.93999 1.30857 1.24999 3.13214 1.24999C4.85714 1.24999 5.71964 2.30964 5.71964 4.42893C10.7961 2.26035 15.7 1.17607 20.4314 1.17607C27.1343 1.17607 32.0629 2.77785 35.2171 5.98142C38.3714 9.185 39.9486 13.2264 39.9486 18.1057C39.9486 25.0057 36.3754 29.5893 29.2289 31.8564L41.575 49.6732C41.8707 50.2154 42.0186 50.6836 42.0186 51.0779C42.0186 51.6693 41.7721 52.1375 41.2793 52.4825C40.8357 52.8275 40.2443 53 39.505 53C37.9771 53 36.7696 52.3839 35.8825 51.1518L23.6104 33.1132C21.1461 33.4582 18.2136 33.6307 14.8129 33.6307C13.8271 33.6307 12.3239 33.5568 10.3032 33.4089C8.33179 33.2611 6.85322 33.1871 5.8675 33.1871V51.0039C5.8675 51.6446 5.59643 52.1375 5.05429 52.4825C4.56143 52.8275 3.94536 53 3.20607 53C1.33322 53 0.396786 52.3346 0.396786 51.0039ZM5.8675 26.8293C7.88822 27.47 11.9543 27.7904 18.0657 27.7904C22.9943 27.7904 26.9618 26.9279 29.9682 25.2029C32.9746 23.4286 34.4779 20.7918 34.4779 17.2925C34.4779 14.2861 33.2704 11.7725 30.8554 9.75178C28.4404 7.68178 24.7193 6.64678 19.6921 6.64678C15.355 6.64678 10.7468 7.95285 5.8675 10.565V26.8293ZM47.6932 50.2646C47.6932 50.0675 47.7425 49.8211 47.841 49.5254L52.8682 36.2182H49.8371C48.5064 36.2182 47.841 35.2818 47.841 33.4089C47.841 32.6696 48.0135 32.0536 48.3585 31.5607C48.7035 31.0186 49.1964 30.7475 49.8371 30.7475H54.9382L65.2142 3.8375C65.6085 3.04892 66.1507 2.43285 66.8407 1.98928C67.5307 1.49642 68.1467 1.24999 68.6889 1.24999C69.231 1.24999 69.8471 1.49642 70.5371 1.98928C71.2271 2.48214 71.7446 3.09821 72.0896 3.8375L82.3657 30.7475H87.171C87.8117 30.7475 88.3046 31.0186 88.6496 31.5607C89.0439 32.1029 89.241 32.7436 89.241 33.4829C89.241 35.3064 88.551 36.2182 87.171 36.2182H84.5096L89.6107 49.5254C89.7092 49.8211 89.7585 50.0675 89.7585 50.2646C89.7585 51.0039 89.3889 51.6446 88.6496 52.1868C87.9103 52.7289 87.171 53 86.4317 53C85.6432 53 85.0517 52.6304 84.6575 51.8911L78.6692 36.2182H58.7825L52.7942 51.8911C52.4 52.6304 51.8085 53 51.02 53C50.2807 53 49.5414 52.7289 48.8021 52.1868C48.0628 51.6446 47.6932 51.0039 47.6932 50.2646ZM60.8525 30.7475H76.5253L68.6889 10.1214L60.8525 30.7475ZM97.6446 50.93V3.24607C97.6446 1.91535 98.5811 1.24999 100.454 1.24999C101.193 1.24999 101.809 1.4225 102.302 1.7675C102.844 2.1125 103.115 2.60535 103.115 3.24607V3.8375C106.615 1.57035 110.04 0.436782 113.391 0.436782C120.784 0.436782 127.191 2.95035 132.613 7.9775C138.084 12.9554 140.819 19.2146 140.819 26.7554C140.819 31.4868 139.759 35.8732 137.64 39.9146C135.521 43.9068 132.317 47.2089 128.029 49.8211C123.741 52.3839 118.764 53.6654 113.096 53.6654C109.301 53.6654 105.974 52.7536 103.115 50.93C103.115 51.5707 102.844 52.0882 102.302 52.4825C101.76 52.8275 101.119 53 100.38 53C98.5564 53 97.6446 52.31 97.6446 50.93ZM103.115 43.8329C105.826 46.7407 109.276 48.1946 113.465 48.1946C120.119 48.1946 125.417 46.0261 129.36 41.6889C133.303 37.3518 135.274 32.3493 135.274 26.6814C135.274 21.1614 133.254 16.3314 129.212 12.1914C125.22 8.00214 119.996 5.9075 113.539 5.9075C110.04 5.9075 106.565 7.115 103.115 9.53V43.8329Z" fill="white"/>
</svg>
