<svg width="142" height="54" viewBox="0 0 142 54" fill="none" xmlns="http://www.w3.org/2000/svg">
<path d="M0.704404 51.0039V3.31999C0.704404 1.93999 1.61619 1.24999 3.43976 1.24999C5.16476 1.24999 6.02726 2.30964 6.02726 4.42893C11.1037 2.26035 16.0076 1.17607 20.739 1.17607C27.4419 1.17607 32.3705 2.77785 35.5248 5.98142C38.679 9.185 40.2562 13.2264 40.2562 18.1057C40.2562 25.0057 36.683 29.5893 29.5365 31.8564L41.8826 49.6732C42.1783 50.2154 42.3262 50.6836 42.3262 51.0779C42.3262 51.6693 42.0798 52.1375 41.5869 52.4825C41.1433 52.8275 40.5519 53 39.8126 53C38.2848 53 37.0773 52.3839 36.1901 51.1518L23.918 33.1132C21.4537 33.4582 18.5212 33.6307 15.1205 33.6307C14.1348 33.6307 12.6315 33.5568 10.6108 33.4089C8.6394 33.2611 7.16083 33.1871 6.17512 33.1871V51.0039C6.17512 51.6446 5.90405 52.1375 5.3619 52.4825C4.86905 52.8275 4.25297 53 3.51369 53C1.64083 53 0.704404 52.3346 0.704404 51.0039ZM6.17512 26.8293C8.19583 27.47 12.2619 27.7904 18.3733 27.7904C23.3019 27.7904 27.2694 26.9279 30.2758 25.2029C33.2823 23.4286 34.7855 20.7918 34.7855 17.2925C34.7855 14.2861 33.578 11.7725 31.163 9.75178C28.748 7.68178 25.0269 6.64678 19.9998 6.64678C15.6626 6.64678 11.0544 7.95285 6.17512 10.565V26.8293ZM97.9522 50.93V3.24607C97.9522 1.91535 98.8887 1.24999 100.762 1.24999C101.501 1.24999 102.117 1.4225 102.61 1.7675C103.152 2.1125 103.423 2.60535 103.423 3.24607V3.8375C106.922 1.57035 110.348 0.436782 113.699 0.436782C121.092 0.436782 127.499 2.95035 132.92 7.9775C138.391 12.9554 141.127 19.2146 141.127 26.7554C141.127 31.4868 140.067 35.8732 137.948 39.9146C135.828 43.9068 132.625 47.2089 128.337 49.8211C124.049 52.3839 119.071 53.6654 113.403 53.6654C109.608 53.6654 106.282 52.7536 103.423 50.93C103.423 51.5707 103.152 52.0882 102.61 52.4825C102.068 52.8275 101.427 53 100.688 53C98.864 53 97.9522 52.31 97.9522 50.93ZM103.423 43.8329C106.134 46.7407 109.584 48.1946 113.773 48.1946C120.427 48.1946 125.725 46.0261 129.668 41.6889C133.61 37.3518 135.582 32.3493 135.582 26.6814C135.582 21.1614 133.561 16.3314 129.52 12.1914C125.528 8.00214 120.303 5.9075 113.847 5.9075C110.348 5.9075 106.873 7.115 103.423 9.53V43.8329Z" fill="black"/>
<path d="M48.0008 50.2646C48.0008 50.0675 48.0501 49.8211 48.1486 49.5254L53.1758 36.2182H50.1447C48.814 36.2182 48.1486 35.2818 48.1486 33.4089C48.1486 32.6696 48.3211 32.0536 48.6661 31.5607C49.0111 31.0186 49.504 30.7475 50.1447 30.7475H55.2458L65.5219 3.8375C65.9161 3.04892 66.4583 2.43285 67.1483 1.98928C67.8383 1.49642 68.4544 1.24999 68.9965 1.24999C69.5386 1.24999 70.1547 1.49642 70.8447 1.98928C71.5347 2.48214 72.0522 3.09821 72.3972 3.8375L82.6733 30.7475H87.4786C88.1194 30.7475 88.6122 31.0186 88.9572 31.5607C89.3515 32.1029 89.5486 32.7436 89.5486 33.4829C89.5486 35.3064 88.8586 36.2182 87.4786 36.2182H84.8172L89.9183 49.5254C90.0169 49.8211 90.0661 50.0675 90.0661 50.2646C90.0661 51.0039 89.6965 51.6446 88.9572 52.1868C88.2179 52.7289 87.4786 53 86.7394 53C85.9508 53 85.3594 52.6304 84.9651 51.8911L78.9769 36.2182H59.0901L53.1019 51.8911C52.7076 52.6304 52.1161 53 51.3276 53C50.5883 53 49.849 52.7289 49.1097 52.1868C48.3704 51.6446 48.0008 51.0039 48.0008 50.2646ZM61.1601 30.7475H76.8329L68.9965 10.1214L61.1601 30.7475Z" fill="#52A3EE"/>
</svg>
