<svg width="171" height="172" viewBox="0 0 171 172" fill="none" xmlns="http://www.w3.org/2000/svg">
<g clip-path="url(#clip0_1361_3398)">
<path d="M171 0H0V172H171V0Z" fill="#1A7FD3"/>
<path d="M57.1725 35.0818C55.6989 35.2538 54.2064 35.1512 52.7697 34.7793L53.5948 30.6929C55.7621 31.2394 57.9157 31.0322 60.0555 30.0712C61.1252 29.591 61.8943 29.0271 62.3626 28.3795C62.8305 27.7322 62.9259 27.0961 62.6487 26.4712C62.3868 25.8812 61.8893 25.5529 61.1561 25.4864C60.423 25.4204 59.387 25.6044 58.0484 26.0387C55.4572 26.8696 53.3914 27.0999 51.8511 26.7295C50.3104 26.3596 49.1742 25.3502 48.4426 23.7012C47.9563 22.6521 47.825 21.4718 48.0686 20.3406C48.3125 19.2112 48.8913 18.1603 49.8049 17.1877C50.7183 16.2153 51.9086 15.3998 53.3757 14.7412C54.6246 14.1784 55.9493 13.8045 57.307 13.6315C58.5886 13.4551 59.8904 13.493 61.1597 13.7437L60.4956 17.633C58.6936 17.273 56.8248 17.4897 55.1515 18.2528C54.0988 18.7255 53.3345 19.2769 52.8588 19.907C52.3829 20.5372 52.2759 21.1473 52.5379 21.7373C52.7924 22.31 53.2606 22.6305 53.9427 22.6988C54.6251 22.7672 55.6395 22.5927 56.9858 22.1755C59.5592 21.3531 61.66 21.1436 63.2882 21.5469C64.9159 21.951 66.0958 22.9772 66.8278 24.6257C67.3291 25.7067 67.4655 26.9229 67.2164 28.0891C66.9668 29.2527 66.3699 30.3326 65.4256 31.3288C64.4813 32.3253 63.2585 33.1606 61.7572 33.8349C60.3045 34.4928 58.7569 34.9137 57.1725 35.0818Z" fill="white"/>
<path d="M77.0688 24.9137L87.9682 23.9382L88.3148 27.8578L72.9258 29.2348L71.1675 9.35367L86.2459 8.00439L86.5899 11.8955L76.0012 12.843L76.3581 16.8761L86.3818 15.9791L86.7135 19.728L76.6895 20.625L77.0688 24.9137Z" fill="white"/>
<path d="M97.1376 8.97632L101.666 10.0355L98.1216 25.366L107.841 27.6392L106.89 31.7495L92.6431 28.4171L97.1376 8.97632Z" fill="white"/>
<path d="M130.847 27.3271L122.281 22.1237L119.834 26.1998L127.914 31.1083L125.877 34.5011L117.797 29.5925L114.118 35.7188L110.138 33.3013L120.397 16.2158L132.942 23.8369L130.847 27.3271Z" fill="white"/>
<path d="M23.8425 132.356L18.6375 123.905L30.014 116.816L35.1886 125.219L33.4171 126.322L29.3702 119.751L26.2985 121.665L30.1845 127.975L28.4943 129.028L24.6083 122.718L21.5529 124.622L25.6302 131.242L23.8425 132.356Z" fill="white"/>
<path d="M38.3665 142.495L44.951 135.578L46.4977 137.067L37.2421 146.79L36.0683 145.66L37.1177 133.518L30.586 140.38L29.0254 138.877L38.281 129.154L39.4687 130.298L38.3665 142.495Z" fill="white"/>
<path d="M59.9933 145.294L56.2031 152.196C55.371 153.71 54.2415 154.687 52.8146 155.124C51.3877 155.561 49.9099 155.356 48.3814 154.506C46.8978 153.682 45.9364 152.569 45.4971 151.168C45.058 149.767 45.2668 148.286 46.1234 146.727L47.9642 147.749C47.3971 148.782 47.2329 149.731 47.4715 150.595C47.71 151.46 48.3369 152.175 49.3522 152.739C50.3452 153.291 51.2858 153.414 52.1739 153.109C53.0618 152.805 53.7801 152.153 54.3288 151.154L57.1577 146.003L53.3922 143.911L54.3538 142.16L59.9933 145.294Z" fill="white"/>
<path d="M75.2119 151.718C76.0432 153.326 76.2299 155.077 75.772 156.971C75.567 157.84 75.2173 158.667 74.7376 159.419C74.2779 160.14 73.692 160.771 73.0083 161.282C72.2822 161.808 71.4403 162.148 70.5546 162.275C69.5311 162.427 68.4876 162.371 67.4863 162.109C66.4752 161.879 65.5227 161.44 64.6888 160.821C63.9638 160.289 63.3738 159.592 62.9668 158.787C62.5942 158.023 62.3604 157.198 62.2764 156.352C62.1902 155.476 62.2543 154.591 62.4659 153.736C62.9477 151.743 63.9699 150.255 65.5325 149.271C67.0951 148.288 68.8548 148.035 70.8116 148.514C72.914 149.041 74.3808 150.109 75.2119 151.718ZM64.3937 156.058C64.4392 156.656 64.5873 157.241 64.8315 157.788C65.0966 158.367 65.4977 158.873 66.0001 159.261C66.5755 159.709 67.2416 160.024 67.9514 160.184C69.4748 160.556 70.7311 160.379 71.7202 159.651C72.7096 158.923 73.3699 157.874 73.701 156.504C73.9039 155.698 73.9426 154.859 73.8149 154.038C73.6721 153.212 73.298 152.444 72.7364 151.825C72.1039 151.121 71.2709 150.63 70.3509 150.42C68.8893 150.063 67.6415 150.246 66.6076 150.969C65.5734 151.693 64.8787 152.789 64.5235 154.259C64.3922 154.849 64.3484 155.455 64.3937 156.058Z" fill="white"/>
<path d="M86.0785 156.46L89.7866 150.458L92.3672 150.415L92.3687 150.511L87.1812 158.443L87.2701 163.961L85.1293 163.996L85.0402 158.478L79.7528 150.717L79.7512 150.621L82.2935 150.579L86.0785 156.46Z" fill="white"/>
<path d="M118.973 156.452L116.64 157.37L111.163 154.527L108.527 155.564L110.213 159.898L108.218 160.682L103.337 148.128C103.978 147.876 104.947 147.498 106.243 146.995C107.539 146.492 108.508 146.115 109.149 145.863C110.526 145.321 111.759 145.3 112.85 145.801C113.375 146.031 113.848 146.366 114.241 146.784C114.635 147.202 114.941 147.695 115.141 148.234C115.522 149.152 115.583 150.173 115.312 151.13C115.041 152.069 114.363 152.849 113.276 153.469L118.62 156.178L118.973 156.452ZM106.049 149.188L107.817 153.737L111.61 152.245C112.393 151.937 112.903 151.489 113.14 150.9C113.376 150.312 113.371 149.653 113.125 149.068C112.902 148.467 112.46 147.973 111.89 147.686C111.307 147.385 110.63 147.386 109.859 147.689L106.049 149.188Z" fill="white"/>
<path d="M125.32 152.621L118.116 141.276L119.905 140.127L127.109 151.472L125.32 152.621Z" fill="white"/>
<path d="M128.435 133.283C129.153 132.565 130.007 132.001 130.947 131.624C131.757 131.294 132.633 131.163 133.503 131.244C134.312 131.329 135.099 131.556 135.83 131.914C136.574 132.281 137.25 132.772 137.831 133.366C138.438 133.96 138.936 134.658 139.299 135.427C139.657 136.184 139.875 136.999 139.944 137.833C140.004 138.73 139.848 139.627 139.489 140.449C139.079 141.407 138.476 142.269 137.717 142.979L134.068 146.514L124.786 136.817L128.435 133.283ZM134.165 143.537L136.285 141.483C137.387 140.416 137.893 139.272 137.803 138.051C137.712 136.827 137.172 135.68 136.289 134.833C135.754 134.3 135.118 133.88 134.419 133.601C133.7 133.331 132.918 133.281 132.17 133.456C131.29 133.66 130.486 134.115 129.854 134.765L127.733 136.819L134.165 143.537Z" fill="white"/>
<path d="M152.685 123.381L147.48 131.833L136.103 124.745L141.277 116.342L143.049 117.445L139.002 124.018L142.074 125.932L145.96 119.621L147.65 120.674L143.764 126.985L146.82 128.889L150.897 122.267L152.685 123.381Z" fill="white"/>
<path d="M11.9971 88.6543C11.9913 95.6151 12.9628 102.542 14.8829 109.229L16.1495 108.861C14.2639 102.293 13.3098 95.4904 13.3156 88.6543C13.3158 65.9075 23.7135 45.6078 39.9909 32.2939L39.1591 31.2649C22.5872 44.8175 11.9969 65.4954 11.9971 88.6543Z" fill="white"/>
<path d="M138.547 37.4805L137.596 38.3987C146.354 47.5955 152.558 58.9444 155.586 71.31C158.614 83.6757 158.361 96.6243 154.852 108.861L156.119 109.229C159.692 96.7693 159.95 83.5842 156.866 70.9927C153.782 58.4013 147.465 46.8451 138.547 37.4805Z" fill="white"/>
<path d="M51.6167 97.3793V97.193C51.6167 96.4679 51.9031 95.7725 52.4128 95.2598C52.9226 94.747 53.614 94.459 54.3348 94.459H59.1762C59.4208 94.459 59.663 94.4105 59.8889 94.3164C60.1149 94.2223 60.3202 94.0843 60.4931 93.9103C60.6661 93.7364 60.8032 93.5299 60.8968 93.3026C60.9904 93.0753 61.0386 92.8317 61.0386 92.5857C61.0386 92.3397 60.9904 92.0961 60.8968 91.8688C60.8032 91.6415 60.6661 91.435 60.4931 91.2611C60.3202 91.0871 60.1149 90.9491 59.8889 90.855C59.663 90.7609 59.4208 90.7124 59.1762 90.7124H43.8002C43.4432 90.7124 43.0898 90.6417 42.76 90.5043C42.4302 90.3669 42.1306 90.1655 41.8782 89.9116C41.6258 89.6578 41.4256 89.3564 41.289 89.0247C41.1524 88.693 41.0821 88.3374 41.0821 87.9784V87.5609C41.0821 87.2019 41.1524 86.8464 41.289 86.5147C41.4256 86.1829 41.6258 85.8816 41.8782 85.6277C42.1306 85.3738 42.4302 85.1724 42.76 85.035C43.0898 84.8976 43.4432 84.8269 43.8002 84.8269H66.0322C66.2768 84.8269 66.519 84.7785 66.7449 84.6843C66.9709 84.5902 67.1762 84.4522 67.3491 84.2782C67.5221 84.1043 67.6592 83.8978 67.7528 83.6705C67.8464 83.4432 67.8946 83.1996 67.8946 82.9536V82.9341C67.8946 82.688 67.8464 82.4445 67.7528 82.2172C67.6592 81.9899 67.5221 81.7834 67.3491 81.6094C67.1762 81.4355 66.9709 81.2975 66.7449 81.2034C66.519 81.1092 66.2768 81.0608 66.0322 81.0608H34.2017C33.4809 81.0608 32.7895 80.7727 32.2798 80.26C31.77 79.7473 31.4836 79.0519 31.4836 78.3268C31.4836 77.9677 31.5539 77.6122 31.6905 77.2805C31.8271 76.9488 32.0274 76.6474 32.2798 76.3935C32.5322 76.1397 32.8318 75.9383 33.1616 75.8009C33.4913 75.6635 33.8448 75.5928 34.2017 75.5928H71.9617C72.2063 75.5928 72.4485 75.5443 72.6744 75.4502C72.9004 75.356 73.1057 75.218 73.2786 75.0441C73.4516 74.8701 73.5888 74.6636 73.6824 74.4364C73.776 74.2091 73.8241 73.9655 73.8241 73.7195V73.4248C73.8241 73.1788 73.776 72.9352 73.6824 72.7079C73.5888 72.4806 73.4516 72.2741 73.2786 72.1002C73.1057 71.9262 72.9004 71.7882 72.6744 71.6941C72.4485 71.6 72.2063 71.5515 71.9617 71.5515H57.0238C56.3029 71.5515 55.6116 71.2635 55.1018 70.7507C54.5921 70.238 54.3057 69.5426 54.3057 68.8175V68.6468C54.3057 67.9217 54.5921 67.2263 55.1018 66.7136C55.6116 66.2009 56.3029 65.9128 57.0238 65.9128H86.9469C90.912 65.9128 94.8035 66.9896 98.2106 69.0295L115.718 79.5068C117.906 80.8165 120.303 81.7346 122.803 82.2205L130.574 83.7302C131.022 83.8175 131.427 84.0592 131.717 84.4138C132.008 84.7684 132.167 85.2138 132.167 85.6735V86.7774C132.167 86.9988 132.255 87.2111 132.411 87.3675C132.566 87.524 132.777 87.6118 132.998 87.6116H133.18C133.554 87.6119 133.913 87.7617 134.177 88.0279C134.442 88.2942 134.59 88.6552 134.59 89.0315V95.2729C134.59 95.6492 134.442 96.0101 134.177 96.2763C133.913 96.5424 133.554 96.692 133.18 96.6921H132.998C132.777 96.692 132.566 96.7798 132.411 96.9362C132.255 97.0927 132.167 97.3049 132.167 97.5264V100.113H123.306C123.306 97.6164 122.32 95.2219 120.565 93.4564C118.81 91.6908 116.429 90.699 113.947 90.699C111.464 90.699 109.084 91.6908 107.329 93.4564C105.573 95.2219 104.587 97.6164 104.587 100.113H83.9622C83.9627 98.8767 83.721 97.6522 83.2509 96.5096C82.7808 95.3671 82.0915 94.3288 81.2224 93.4543C80.3533 92.5797 79.3214 91.886 78.1857 91.4127C77.05 90.9393 75.8327 90.6957 74.6034 90.6957C73.374 90.6957 72.1567 90.9393 71.021 91.4127C69.8853 91.886 68.8534 92.5797 67.9843 93.4543C67.1152 94.3288 66.4259 95.3671 65.9558 96.5096C65.4857 97.6522 65.244 98.8767 65.2445 100.113H54.3348C53.614 100.113 52.9226 99.8252 52.4129 99.3125C51.9031 98.7998 51.6167 98.1044 51.6167 97.3793Z" fill="white"/>
<path d="M113.947 106.273C117.328 106.273 120.07 103.515 120.07 100.114C120.07 96.7121 117.328 93.9546 113.947 93.9546C110.565 93.9546 107.823 96.7121 107.823 100.114C107.823 103.515 110.565 106.273 113.947 106.273Z" fill="white"/>
<path d="M74.6033 106.273C77.9852 106.273 80.7267 103.515 80.7267 100.114C80.7267 96.7121 77.9852 93.9546 74.6033 93.9546C71.2215 93.9546 68.48 96.7121 68.48 100.114C68.48 103.515 71.2215 106.273 74.6033 106.273Z" fill="white"/>
<path d="M52.3404 69.1838C52.5884 67.6468 51.5507 66.1986 50.0226 65.9492C48.4946 65.6998 47.0549 66.7436 46.8069 68.2805C46.5589 69.8175 47.5966 71.2657 49.1247 71.5151C50.6527 71.7645 52.0924 70.7207 52.3404 69.1838Z" fill="white"/>
<path d="M47.2881 99.8992C48.7182 99.3033 49.3974 97.6541 48.805 96.2156C48.2126 94.777 46.573 94.0939 45.1428 94.6898C43.7126 95.2856 43.0335 96.9348 43.6259 98.3734C44.2183 99.8119 45.8579 100.495 47.2881 99.8992Z" fill="white"/>
</g>
<defs>
<clipPath id="clip0_1361_3398">
<rect width="171" height="172" rx="20" fill="white"/>
</clipPath>
</defs>
</svg>
