<svg width="428" height="325" viewBox="0 0 428 325" fill="none" xmlns="http://www.w3.org/2000/svg">
<g clip-path="url(#clip0_1_138)">
<path d="M445.625 248.407C458.442 224.7 460.294 197.659 457.33 171.581C454.663 148.392 450.663 121.87 439.402 100.978C410.953 48.0072 339.017 23.1146 280.638 39.0429C256.264 45.7105 239.224 61.0461 219.666 75.715C205.219 86.5314 189.365 97.1256 170.695 99.274C125.948 104.46 75.0516 62.2315 32.6009 65.9357C-9.84988 69.64 -42.9659 107.423 -44.5217 140.021C-46.0775 172.618 -13.6282 205.957 -16.7398 228.182C-19.8514 250.408 -39.8543 309.676 39.5649 311.898C118.984 314.121 160.694 269.67 191.513 279.301C222.407 288.932 290.269 317.084 347.314 309.676C384.579 304.86 420.955 286.561 441.402 255.519C442.884 253.223 444.292 250.852 445.625 248.407Z" fill="#52A3EE"/>
<path opacity="0.8" d="M445.625 248.407C458.442 224.7 460.294 197.659 457.33 171.581C454.663 148.392 450.663 121.87 439.402 100.978C410.953 48.0072 339.017 23.1146 280.638 39.0429C256.264 45.7105 239.224 61.0461 219.666 75.715C205.219 86.5314 189.365 97.1256 170.695 99.274C125.948 104.46 75.0516 62.2315 32.6009 65.9357C-9.84988 69.64 -42.9659 107.423 -44.5217 140.021C-46.0775 172.618 -13.6282 205.957 -16.7398 228.182C-19.8514 250.408 -39.8543 309.676 39.5649 311.898C118.984 314.121 160.694 269.67 191.513 279.301C222.407 288.932 290.269 317.084 347.314 309.676C384.579 304.86 420.955 286.561 441.402 255.519C442.884 253.223 444.292 250.852 445.625 248.407Z" fill="white"/>
<path d="M-47.0405 324.715H470.962" stroke="#263238" strokeWidth="0.740851" stroke-miterlimit="10" strokeLinecap="round" strokeLinejoin="round"/>
<path d="M156.027 8.29756C156.027 8.29756 153.582 1.85216 147.951 0.666802C142.321 -0.518559 140.098 2.88935 138.913 5.70459C137.728 8.51982 134.097 6.29727 131.06 5.92684C128.022 5.55642 126.393 8.51982 125.8 10.7424C125.207 12.9649 121.355 9.70518 117.947 11.7796C114.539 13.7799 113.946 16.4469 113.131 17.0396C112.316 17.6323 110.094 16.6692 108.908 18.225C107.723 19.8548 107.723 19.8548 107.723 19.8548H170.77C170.77 19.8548 172.77 15.1875 168.991 11.7796C165.065 8.29756 158.397 13.4835 156.027 8.29756Z" stroke="#263238" strokeWidth="0.740851" stroke-miterlimit="10" strokeLinecap="round"/>
<path d="M330.052 14.2243C330.052 14.2243 325.83 2.88934 315.902 0.814953C305.975 -1.33351 302.122 4.66738 299.974 9.63107C297.825 14.5948 291.528 10.6683 286.194 10.0015C280.86 9.26065 278.045 14.5948 277.008 18.4472C275.97 22.2996 269.229 16.6692 263.228 20.2252C257.227 23.7813 256.19 28.3746 254.782 29.4118C253.374 30.449 249.448 28.6709 247.374 31.5602C245.225 34.3755 245.225 34.3755 245.225 34.3755H355.834C355.834 34.3755 359.39 26.2261 352.648 20.2252C345.981 14.2243 334.349 23.4109 330.052 14.2243Z" stroke="#263238" strokeWidth="0.740851" stroke-miterlimit="10" strokeLinecap="round"/>
<path d="M47.1216 33.4124C47.1216 33.4124 45.4917 28.9673 41.5652 28.1524C37.7128 27.3374 36.157 29.7081 35.3421 31.6344C34.5272 33.5606 32.0083 32.0789 29.9339 31.7825C27.8595 31.4862 26.7482 33.5606 26.3037 35.1164C25.8592 36.6721 23.2662 34.4496 20.8955 35.7831C18.5248 37.1907 18.1544 38.9688 17.5617 39.4133C17.0431 39.8578 15.4873 39.1169 14.6724 40.2282C13.8574 41.3395 13.8574 41.3395 13.8574 41.3395H57.3454C57.3454 41.3395 58.753 38.1538 56.0859 35.7831C53.4188 33.4124 48.8256 37.0426 47.1216 33.4124Z" stroke="#263238" strokeWidth="0.740851" stroke-miterlimit="10" strokeLinecap="round"/>
<path d="M363.539 52.3781C363.539 52.3781 361.909 47.933 357.982 47.1181C354.13 46.3031 352.574 48.6738 351.759 50.6001C350.944 52.5263 348.426 51.0446 346.351 50.7482C344.277 50.4519 343.165 52.5263 342.721 54.082C342.276 55.6378 339.683 53.4153 337.313 54.7488C334.942 56.1564 334.572 57.9345 333.979 58.379C333.46 58.8235 331.905 58.0826 331.09 59.1939C330.275 60.3052 330.275 60.3052 330.275 60.3052H373.763C373.763 60.3052 375.17 57.1195 372.503 54.7488C369.762 52.3781 365.169 55.9342 363.539 52.3781Z" stroke="#263238" strokeWidth="0.740851" stroke-miterlimit="10" strokeLinecap="round"/>
<path d="M-13.7764 200.919H8.07872V134.464H27.4149V103.423H63.9389V164.987H73.3477V45.6365H113.502V98.0146H138.543V52.8227H181.29V154.616H239.743V93.7918H277.896V155.208H301.307V162.246H315.902V114.758H325.83V162.246H332.571V112.165H343.536V160.098H357.093V79.4933H381.616V132.316H395.692V53.3413H430.141V212.921" stroke="#263238" strokeWidth="0.740851" stroke-miterlimit="10" strokeLinecap="round"/>
<path d="M18.0062 145.355H13.8574V150.837H18.0062V145.355Z" stroke="#263238" strokeWidth="0.740851" stroke-miterlimit="10" strokeLinecap="round"/>
<path d="M24.7479 145.355H20.5991V150.837H24.7479V145.355Z" stroke="#263238" strokeWidth="0.740851" stroke-miterlimit="10" strokeLinecap="round"/>
<path d="M31.5638 145.355H27.415V150.837H31.5638V145.355Z" stroke="#263238" strokeWidth="0.740851" stroke-miterlimit="10" strokeLinecap="round"/>
<path d="M38.3795 145.355H34.2307V150.837H38.3795V145.355Z" stroke="#263238" strokeWidth="0.740851" stroke-miterlimit="10" strokeLinecap="round"/>
<path d="M45.1214 145.355H40.9727V150.837H45.1214V145.355Z" stroke="#263238" strokeWidth="0.740851" stroke-miterlimit="10" strokeLinecap="round"/>
<path d="M51.9371 145.355H47.7883V150.837H51.9371V145.355Z" stroke="#263238" strokeWidth="0.740851" stroke-miterlimit="10" strokeLinecap="round"/>
<path d="M83.7196 105.053H79.5708V110.535H83.7196V105.053Z" stroke="#263238" strokeWidth="0.740851" stroke-miterlimit="10" strokeLinecap="round"/>
<path d="M90.5355 105.053H86.3867V110.535H90.5355V105.053Z" stroke="#263238" strokeWidth="0.740851" stroke-miterlimit="10" strokeLinecap="round"/>
<path d="M97.2772 105.053H93.1284V110.535H97.2772V105.053Z" stroke="#263238" strokeWidth="0.740851" stroke-miterlimit="10" strokeLinecap="round"/>
<path d="M104.093 105.053H99.9441V110.535H104.093V105.053Z" stroke="#263238" strokeWidth="0.740851" stroke-miterlimit="10" strokeLinecap="round"/>
<path d="M83.7196 95.2734H79.5708V100.756H83.7196V95.2734Z" stroke="#263238" strokeWidth="0.740851" stroke-miterlimit="10" strokeLinecap="round"/>
<path d="M90.5355 95.2734H86.3867V100.756H90.5355V95.2734Z" stroke="#263238" strokeWidth="0.740851" stroke-miterlimit="10" strokeLinecap="round"/>
<path d="M97.2772 95.2734H93.1284V100.756H97.2772V95.2734Z" stroke="#263238" strokeWidth="0.740851" stroke-miterlimit="10" strokeLinecap="round"/>
<path d="M104.093 95.2734H99.9441V100.756H104.093V95.2734Z" stroke="#263238" strokeWidth="0.740851" stroke-miterlimit="10" strokeLinecap="round"/>
<path d="M83.7196 85.4943H79.5708V90.9766H83.7196V85.4943Z" stroke="#263238" strokeWidth="0.740851" stroke-miterlimit="10" strokeLinecap="round"/>
<path d="M90.5355 85.4943H86.3867V90.9766H90.5355V85.4943Z" stroke="#263238" strokeWidth="0.740851" stroke-miterlimit="10" strokeLinecap="round"/>
<path d="M97.2772 85.4943H93.1284V90.9766H97.2772V85.4943Z" stroke="#263238" strokeWidth="0.740851" stroke-miterlimit="10" strokeLinecap="round"/>
<path d="M104.093 85.4943H99.9441V90.9766H104.093V85.4943Z" stroke="#263238" strokeWidth="0.740851" stroke-miterlimit="10" strokeLinecap="round"/>
<path d="M83.7196 75.715H79.5708V81.1973H83.7196V75.715Z" stroke="#263238" strokeWidth="0.740851" stroke-miterlimit="10" strokeLinecap="round"/>
<path d="M90.5355 75.715H86.3867V81.1973H90.5355V75.715Z" stroke="#263238" strokeWidth="0.740851" stroke-miterlimit="10" strokeLinecap="round"/>
<path d="M97.2772 75.715H93.1284V81.1973H97.2772V75.715Z" stroke="#263238" strokeWidth="0.740851" stroke-miterlimit="10" strokeLinecap="round"/>
<path d="M104.093 75.715H99.9441V81.1973H104.093V75.715Z" stroke="#263238" strokeWidth="0.740851" stroke-miterlimit="10" strokeLinecap="round"/>
<path d="M83.7196 65.8617H79.5708V71.2699H83.7196V65.8617Z" stroke="#263238" strokeWidth="0.740851" stroke-miterlimit="10" strokeLinecap="round"/>
<path d="M90.5355 65.8617H86.3867V71.2699H90.5355V65.8617Z" stroke="#263238" strokeWidth="0.740851" stroke-miterlimit="10" strokeLinecap="round"/>
<path d="M97.2772 65.8617H93.1284V71.2699H97.2772V65.8617Z" stroke="#263238" strokeWidth="0.740851" stroke-miterlimit="10" strokeLinecap="round"/>
<path d="M104.093 65.8617H99.9441V71.2699H104.093V65.8617Z" stroke="#263238" strokeWidth="0.740851" stroke-miterlimit="10" strokeLinecap="round"/>
<path d="M110.835 105.053H106.686V110.535H110.835V105.053Z" stroke="#263238" strokeWidth="0.740851" stroke-miterlimit="10" strokeLinecap="round"/>
<path d="M117.65 105.053H113.502V110.535H117.65V105.053Z" stroke="#263238" strokeWidth="0.740851" stroke-miterlimit="10" strokeLinecap="round"/>
<path d="M83.7196 115.943H79.5708V121.425H83.7196V115.943Z" stroke="#263238" strokeWidth="0.740851" stroke-miterlimit="10" strokeLinecap="round"/>
<path d="M90.5355 115.943H86.3867V121.425H90.5355V115.943Z" stroke="#263238" strokeWidth="0.740851" stroke-miterlimit="10" strokeLinecap="round"/>
<path d="M97.2772 115.943H93.1284V121.425H97.2772V115.943Z" stroke="#263238" strokeWidth="0.740851" stroke-miterlimit="10" strokeLinecap="round"/>
<path d="M104.093 115.943H99.9441V121.425H104.093V115.943Z" stroke="#263238" strokeWidth="0.740851" stroke-miterlimit="10" strokeLinecap="round"/>
<path d="M110.835 115.943H106.686V121.425H110.835V115.943Z" stroke="#263238" strokeWidth="0.740851" stroke-miterlimit="10" strokeLinecap="round"/>
<path d="M117.65 115.943H113.502V121.425H117.65V115.943Z" stroke="#263238" strokeWidth="0.740851" stroke-miterlimit="10" strokeLinecap="round"/>
<path d="M18.0062 156.838H13.8574V162.32H18.0062V156.838Z" stroke="#263238" strokeWidth="0.740851" stroke-miterlimit="10" strokeLinecap="round"/>
<path d="M24.7479 156.838H20.5991V162.32H24.7479V156.838Z" stroke="#263238" strokeWidth="0.740851" stroke-miterlimit="10" strokeLinecap="round"/>
<path d="M31.5638 156.838H27.415V162.32H31.5638V156.838Z" stroke="#263238" strokeWidth="0.740851" stroke-miterlimit="10" strokeLinecap="round"/>
<path d="M38.3795 156.838H34.2307V162.32H38.3795V156.838Z" stroke="#263238" strokeWidth="0.740851" stroke-miterlimit="10" strokeLinecap="round"/>
<path d="M45.1214 156.838H40.9727V162.32H45.1214V156.838Z" stroke="#263238" strokeWidth="0.740851" stroke-miterlimit="10" strokeLinecap="round"/>
<path d="M51.9371 156.838H47.7883V162.32H51.9371V156.838Z" stroke="#263238" strokeWidth="0.740851" stroke-miterlimit="10" strokeLinecap="round"/>
<path d="M18.0062 168.247H13.8574V173.729H18.0062V168.247Z" stroke="#263238" strokeWidth="0.740851" stroke-miterlimit="10" strokeLinecap="round"/>
<path d="M24.7479 168.247H20.5991V173.729H24.7479V168.247Z" stroke="#263238" strokeWidth="0.740851" stroke-miterlimit="10" strokeLinecap="round"/>
<path d="M31.5638 168.247H27.415V173.729H31.5638V168.247Z" stroke="#263238" strokeWidth="0.740851" stroke-miterlimit="10" strokeLinecap="round"/>
<path d="M38.3795 168.247H34.2307V173.729H38.3795V168.247Z" stroke="#263238" strokeWidth="0.740851" stroke-miterlimit="10" strokeLinecap="round"/>
<path d="M45.1214 168.247H40.9727V173.729H45.1214V168.247Z" stroke="#263238" strokeWidth="0.740851" stroke-miterlimit="10" strokeLinecap="round"/>
<path d="M51.9371 168.247H47.7883V173.729H51.9371V168.247Z" stroke="#263238" strokeWidth="0.740851" stroke-miterlimit="10" strokeLinecap="round"/>
<path d="M18.0062 179.656H13.8574V185.139H18.0062V179.656Z" stroke="#263238" strokeWidth="0.740851" stroke-miterlimit="10" strokeLinecap="round"/>
<path d="M24.7479 179.656H20.5991V185.139H24.7479V179.656Z" stroke="#263238" strokeWidth="0.740851" stroke-miterlimit="10" strokeLinecap="round"/>
<path d="M31.5638 179.656H27.415V185.139H31.5638V179.656Z" stroke="#263238" strokeWidth="0.740851" stroke-miterlimit="10" strokeLinecap="round"/>
<path d="M38.3795 179.656H34.2307V185.139H38.3795V179.656Z" stroke="#263238" strokeWidth="0.740851" stroke-miterlimit="10" strokeLinecap="round"/>
<path d="M45.1214 179.656H40.9727V185.139H45.1214V179.656Z" stroke="#263238" strokeWidth="0.740851" stroke-miterlimit="10" strokeLinecap="round"/>
<path d="M51.9371 179.656H47.7883V185.139H51.9371V179.656Z" stroke="#263238" strokeWidth="0.740851" stroke-miterlimit="10" strokeLinecap="round"/>
<path d="M18.0062 191.14H13.8574V196.622H18.0062V191.14Z" stroke="#263238" strokeWidth="0.740851" stroke-miterlimit="10" strokeLinecap="round"/>
<path d="M24.7479 191.14H20.5991V196.622H24.7479V191.14Z" stroke="#263238" strokeWidth="0.740851" stroke-miterlimit="10" strokeLinecap="round"/>
<path d="M31.5638 191.14H27.415V196.622H31.5638V191.14Z" stroke="#263238" strokeWidth="0.740851" stroke-miterlimit="10" strokeLinecap="round"/>
<path d="M38.3795 191.14H34.2307V196.622H38.3795V191.14Z" stroke="#263238" strokeWidth="0.740851" stroke-miterlimit="10" strokeLinecap="round"/>
<path d="M45.1214 191.14H40.9727V196.622H45.1214V191.14Z" stroke="#263238" strokeWidth="0.740851" stroke-miterlimit="10" strokeLinecap="round"/>
<path d="M51.9371 191.14H47.7883V196.622H51.9371V191.14Z" stroke="#263238" strokeWidth="0.740851" stroke-miterlimit="10" strokeLinecap="round"/>
<path d="M412.879 64.8245H408.731V70.3068H412.879V64.8245Z" stroke="#263238" strokeWidth="0.740851" stroke-miterlimit="10" strokeLinecap="round"/>
<path d="M419.695 64.8245H415.547V70.3068H419.695V64.8245Z" stroke="#263238" strokeWidth="0.740851" stroke-miterlimit="10" strokeLinecap="round"/>
<path d="M426.511 64.8245H422.362V70.3068H426.511V64.8245Z" stroke="#263238" strokeWidth="0.740851" stroke-miterlimit="10" strokeLinecap="round"/>
<path d="M412.879 78.3821H408.731V83.8644H412.879V78.3821Z" stroke="#263238" strokeWidth="0.740851" stroke-miterlimit="10" strokeLinecap="round"/>
<path d="M419.695 78.3821H415.547V83.8644H419.695V78.3821Z" stroke="#263238" strokeWidth="0.740851" stroke-miterlimit="10" strokeLinecap="round"/>
<path d="M426.511 78.3821H422.362V83.8644H426.511V78.3821Z" stroke="#263238" strokeWidth="0.740851" stroke-miterlimit="10" strokeLinecap="round"/>
<path d="M412.879 92.0137H408.731V97.496H412.879V92.0137Z" stroke="#263238" strokeWidth="0.740851" stroke-miterlimit="10" strokeLinecap="round"/>
<path d="M419.695 92.0137H415.547V97.496H419.695V92.0137Z" stroke="#263238" strokeWidth="0.740851" stroke-miterlimit="10" strokeLinecap="round"/>
<path d="M426.511 92.0137H422.362V97.496H426.511V92.0137Z" stroke="#263238" strokeWidth="0.740851" stroke-miterlimit="10" strokeLinecap="round"/>
<path d="M412.879 105.645H408.731V111.128H412.879V105.645Z" stroke="#263238" strokeWidth="0.740851" stroke-miterlimit="10" strokeLinecap="round"/>
<path d="M419.695 105.645H415.547V111.128H419.695V105.645Z" stroke="#263238" strokeWidth="0.740851" stroke-miterlimit="10" strokeLinecap="round"/>
<path d="M426.511 105.645H422.362V111.128H426.511V105.645Z" stroke="#263238" strokeWidth="0.740851" stroke-miterlimit="10" strokeLinecap="round"/>
<path d="M412.879 119.277H408.731V124.759H412.879V119.277Z" stroke="#263238" strokeWidth="0.740851" stroke-miterlimit="10" strokeLinecap="round"/>
<path d="M419.695 119.277H415.547V124.759H419.695V119.277Z" stroke="#263238" strokeWidth="0.740851" stroke-miterlimit="10" strokeLinecap="round"/>
<path d="M426.511 119.277H422.362V124.759H426.511V119.277Z" stroke="#263238" strokeWidth="0.740851" stroke-miterlimit="10" strokeLinecap="round"/>
<path d="M412.879 132.835H408.731V138.317H412.879V132.835Z" stroke="#263238" strokeWidth="0.740851" stroke-miterlimit="10" strokeLinecap="round"/>
<path d="M419.695 132.835H415.547V138.317H419.695V132.835Z" stroke="#263238" strokeWidth="0.740851" stroke-miterlimit="10" strokeLinecap="round"/>
<path d="M426.511 132.835H422.362V138.317H426.511V132.835Z" stroke="#263238" strokeWidth="0.740851" stroke-miterlimit="10" strokeLinecap="round"/>
<path d="M412.879 146.466H408.731V151.948H412.879V146.466Z" stroke="#263238" strokeWidth="0.740851" stroke-miterlimit="10" strokeLinecap="round"/>
<path d="M419.695 146.466H415.547V151.948H419.695V146.466Z" stroke="#263238" strokeWidth="0.740851" stroke-miterlimit="10" strokeLinecap="round"/>
<path d="M426.511 146.466H422.362V151.948H426.511V146.466Z" stroke="#263238" strokeWidth="0.740851" stroke-miterlimit="10" strokeLinecap="round"/>
<path d="M412.879 160.098H408.731V165.58H412.879V160.098Z" stroke="#263238" strokeWidth="0.740851" stroke-miterlimit="10" strokeLinecap="round"/>
<path d="M419.695 160.098H415.547V165.58H419.695V160.098Z" stroke="#263238" strokeWidth="0.740851" stroke-miterlimit="10" strokeLinecap="round"/>
<path d="M426.511 160.098H422.362V165.58H426.511V160.098Z" stroke="#263238" strokeWidth="0.740851" stroke-miterlimit="10" strokeLinecap="round"/>
<path d="M412.879 173.729H408.731V179.212H412.879V173.729Z" stroke="#263238" strokeWidth="0.740851" stroke-miterlimit="10" strokeLinecap="round"/>
<path d="M419.695 173.729H415.547V179.212H419.695V173.729Z" stroke="#263238" strokeWidth="0.740851" stroke-miterlimit="10" strokeLinecap="round"/>
<path d="M368.503 92.0137H364.354V97.496H368.503V92.0137Z" stroke="#263238" strokeWidth="0.740851" stroke-miterlimit="10" strokeLinecap="round"/>
<path d="M375.318 92.0137H371.17V97.496H375.318V92.0137Z" stroke="#263238" strokeWidth="0.740851" stroke-miterlimit="10" strokeLinecap="round"/>
<path d="M368.503 105.645H364.354V111.128H368.503V105.645Z" stroke="#263238" strokeWidth="0.740851" stroke-miterlimit="10" strokeLinecap="round"/>
<path d="M375.318 105.645H371.17V111.128H375.318V105.645Z" stroke="#263238" strokeWidth="0.740851" stroke-miterlimit="10" strokeLinecap="round"/>
<path d="M368.503 119.277H364.354V124.759H368.503V119.277Z" stroke="#263238" strokeWidth="0.740851" stroke-miterlimit="10" strokeLinecap="round"/>
<path d="M375.318 119.277H371.17V124.759H375.318V119.277Z" stroke="#263238" strokeWidth="0.740851" stroke-miterlimit="10" strokeLinecap="round"/>
<path d="M368.503 132.835H364.354V138.317H368.503V132.835Z" stroke="#263238" strokeWidth="0.740851" stroke-miterlimit="10" strokeLinecap="round"/>
<path d="M375.318 132.835H371.17V138.317H375.318V132.835Z" stroke="#263238" strokeWidth="0.740851" stroke-miterlimit="10" strokeLinecap="round"/>
<path d="M368.503 146.466H364.354V151.948H368.503V146.466Z" stroke="#263238" strokeWidth="0.740851" stroke-miterlimit="10" strokeLinecap="round"/>
<path d="M375.318 146.466H371.17V151.948H375.318V146.466Z" stroke="#263238" strokeWidth="0.740851" stroke-miterlimit="10" strokeLinecap="round"/>
<path d="M368.503 160.098H364.354V165.58H368.503V160.098Z" stroke="#263238" strokeWidth="0.740851" stroke-miterlimit="10" strokeLinecap="round"/>
<path d="M375.318 160.098H371.17V165.58H375.318V160.098Z" stroke="#263238" strokeWidth="0.740851" stroke-miterlimit="10" strokeLinecap="round"/>
<path d="M368.503 173.729H364.354V179.212H368.503V173.729Z" stroke="#263238" strokeWidth="0.740851" stroke-miterlimit="10" strokeLinecap="round"/>
<path d="M375.318 173.729H371.17V179.212H375.318V173.729Z" stroke="#263238" strokeWidth="0.740851" stroke-miterlimit="10" strokeLinecap="round"/>
<path d="M249.003 105.645H244.854V111.128H249.003V105.645Z" stroke="#263238" strokeWidth="0.740851" stroke-miterlimit="10" strokeLinecap="round"/>
<path d="M255.745 105.645H251.596V111.128H255.745V105.645Z" stroke="#263238" strokeWidth="0.740851" stroke-miterlimit="10" strokeLinecap="round"/>
<path d="M249.003 119.277H244.854V124.759H249.003V119.277Z" stroke="#263238" strokeWidth="0.740851" stroke-miterlimit="10" strokeLinecap="round"/>
<path d="M255.745 119.277H251.596V124.759H255.745V119.277Z" stroke="#263238" strokeWidth="0.740851" stroke-miterlimit="10" strokeLinecap="round"/>
<path d="M249.003 132.835H244.854V138.317H249.003V132.835Z" stroke="#263238" strokeWidth="0.740851" stroke-miterlimit="10" strokeLinecap="round"/>
<path d="M255.745 132.835H251.596V138.317H255.745V132.835Z" stroke="#263238" strokeWidth="0.740851" stroke-miterlimit="10" strokeLinecap="round"/>
<path d="M249.003 146.466H244.854V151.948H249.003V146.466Z" stroke="#263238" strokeWidth="0.740851" stroke-miterlimit="10" strokeLinecap="round"/>
<path d="M255.745 146.466H251.596V151.948H255.745V146.466Z" stroke="#263238" strokeWidth="0.740851" stroke-miterlimit="10" strokeLinecap="round"/>
<path d="M249.003 160.098H244.854V165.58H249.003V160.098Z" stroke="#263238" strokeWidth="0.740851" stroke-miterlimit="10" strokeLinecap="round"/>
<path d="M255.745 160.098H251.596V165.58H255.745V160.098Z" stroke="#263238" strokeWidth="0.740851" stroke-miterlimit="10" strokeLinecap="round"/>
<path d="M249.003 173.729H244.854V179.212H249.003V173.729Z" stroke="#263238" strokeWidth="0.740851" stroke-miterlimit="10" strokeLinecap="round"/>
<path d="M255.745 173.729H251.596V179.212H255.745V173.729Z" stroke="#263238" strokeWidth="0.740851" stroke-miterlimit="10" strokeLinecap="round"/>
<path d="M264.339 105.645H260.19V111.128H264.339V105.645Z" stroke="#263238" strokeWidth="0.740851" stroke-miterlimit="10" strokeLinecap="round"/>
<path d="M271.155 105.645H267.006V111.128H271.155V105.645Z" stroke="#263238" strokeWidth="0.740851" stroke-miterlimit="10" strokeLinecap="round"/>
<path d="M264.339 119.277H260.19V124.759H264.339V119.277Z" stroke="#263238" strokeWidth="0.740851" stroke-miterlimit="10" strokeLinecap="round"/>
<path d="M271.155 119.277H267.006V124.759H271.155V119.277Z" stroke="#263238" strokeWidth="0.740851" stroke-miterlimit="10" strokeLinecap="round"/>
<path d="M264.339 132.835H260.19V138.317H264.339V132.835Z" stroke="#263238" strokeWidth="0.740851" stroke-miterlimit="10" strokeLinecap="round"/>
<path d="M271.155 132.835H267.006V138.317H271.155V132.835Z" stroke="#263238" strokeWidth="0.740851" stroke-miterlimit="10" strokeLinecap="round"/>
<path d="M264.339 146.466H260.19V151.948H264.339V146.466Z" stroke="#263238" strokeWidth="0.740851" stroke-miterlimit="10" strokeLinecap="round"/>
<path d="M271.155 146.466H267.006V151.948H271.155V146.466Z" stroke="#263238" strokeWidth="0.740851" stroke-miterlimit="10" strokeLinecap="round"/>
<path d="M264.339 160.098H260.19V165.58H264.339V160.098Z" stroke="#263238" strokeWidth="0.740851" stroke-miterlimit="10" strokeLinecap="round"/>
<path d="M271.155 160.098H267.006V165.58H271.155V160.098Z" stroke="#263238" strokeWidth="0.740851" stroke-miterlimit="10" strokeLinecap="round"/>
<path d="M264.339 173.729H260.19V179.212H264.339V173.729Z" stroke="#263238" strokeWidth="0.740851" stroke-miterlimit="10" strokeLinecap="round"/>
<path d="M271.155 173.729H267.006V179.212H271.155V173.729Z" stroke="#263238" strokeWidth="0.740851" stroke-miterlimit="10" strokeLinecap="round"/>
<path d="M157.731 64.8245H153.582V70.3068H157.731V64.8245Z" stroke="#263238" strokeWidth="0.740851" stroke-miterlimit="10" strokeLinecap="round"/>
<path d="M164.546 64.8245H160.398V70.3068H164.546V64.8245Z" stroke="#263238" strokeWidth="0.740851" stroke-miterlimit="10" strokeLinecap="round"/>
<path d="M157.731 78.3821H153.582V83.8644H157.731V78.3821Z" stroke="#263238" strokeWidth="0.740851" stroke-miterlimit="10" strokeLinecap="round"/>
<path d="M164.546 78.3821H160.398V83.8644H164.546V78.3821Z" stroke="#263238" strokeWidth="0.740851" stroke-miterlimit="10" strokeLinecap="round"/>
<path d="M157.731 92.0137H153.582V97.496H157.731V92.0137Z" stroke="#263238" strokeWidth="0.740851" stroke-miterlimit="10" strokeLinecap="round"/>
<path d="M164.546 92.0137H160.398V97.496H164.546V92.0137Z" stroke="#263238" strokeWidth="0.740851" stroke-miterlimit="10" strokeLinecap="round"/>
<path d="M157.731 105.645H153.582V111.128H157.731V105.645Z" stroke="#263238" strokeWidth="0.740851" stroke-miterlimit="10" strokeLinecap="round"/>
<path d="M164.546 105.645H160.398V111.128H164.546V105.645Z" stroke="#263238" strokeWidth="0.740851" stroke-miterlimit="10" strokeLinecap="round"/>
<path d="M157.731 119.277H153.582V124.759H157.731V119.277Z" stroke="#263238" strokeWidth="0.740851" stroke-miterlimit="10" strokeLinecap="round"/>
<path d="M164.546 119.277H160.398V124.759H164.546V119.277Z" stroke="#263238" strokeWidth="0.740851" stroke-miterlimit="10" strokeLinecap="round"/>
<path d="M157.731 132.835H153.582V138.317H157.731V132.835Z" stroke="#263238" strokeWidth="0.740851" stroke-miterlimit="10" strokeLinecap="round"/>
<path d="M164.546 132.835H160.398V138.317H164.546V132.835Z" stroke="#263238" strokeWidth="0.740851" stroke-miterlimit="10" strokeLinecap="round"/>
<path d="M157.731 146.466H153.582V151.948H157.731V146.466Z" stroke="#263238" strokeWidth="0.740851" stroke-miterlimit="10" strokeLinecap="round"/>
<path d="M164.546 146.466H160.398V151.948H164.546V146.466Z" stroke="#263238" strokeWidth="0.740851" stroke-miterlimit="10" strokeLinecap="round"/>
<path d="M157.731 160.098H153.582V165.58H157.731V160.098Z" stroke="#263238" strokeWidth="0.740851" stroke-miterlimit="10" strokeLinecap="round"/>
<path d="M164.546 160.098H160.398V165.58H164.546V160.098Z" stroke="#263238" strokeWidth="0.740851" stroke-miterlimit="10" strokeLinecap="round"/>
<path d="M157.731 173.729H153.582V179.212H157.731V173.729Z" stroke="#263238" strokeWidth="0.740851" stroke-miterlimit="10" strokeLinecap="round"/>
<path d="M164.546 173.729H160.398V179.212H164.546V173.729Z" stroke="#263238" strokeWidth="0.740851" stroke-miterlimit="10" strokeLinecap="round"/>
<path d="M426.511 173.729H422.362V179.212H426.511V173.729Z" stroke="#263238" strokeWidth="0.740851" stroke-miterlimit="10" strokeLinecap="round"/>
<path d="M411.916 261.965C411.916 282.783 400.285 284.338 385.913 284.338C371.54 284.338 359.909 282.783 359.909 261.965C359.909 241.147 371.54 197.733 385.913 197.733C400.285 197.733 411.916 241.221 411.916 261.965Z" fill="#52A3EE"/>
<path opacity="0.58" d="M411.916 261.965C411.916 282.783 400.285 284.338 385.913 284.338C371.54 284.338 359.909 282.783 359.909 261.965C359.909 241.147 371.54 197.733 385.913 197.733C400.285 197.733 411.916 241.221 411.916 261.965Z" fill="white"/>
<path d="M394.655 271.448L390.358 271.744L401.619 264.113L393.543 268.188L394.655 265.002L391.024 269.521L386.728 271.67L386.357 256.705L388.654 251.222L386.357 254.334L386.135 245.666L393.247 236.183L386.061 243.518L385.616 224.478L385.246 236.628L380.653 231.516L385.172 238.998L384.579 258.335L380.579 255.668L376.948 249.296L378.43 254.26L371.318 249.593L384.505 261.002L382.505 324.419H387.913L386.802 274.115L388.061 273.3L394.655 271.448Z" fill="#263238"/>
<path d="M476 224.033C476 257.446 457.256 259.964 434.142 259.964C411.027 259.964 392.284 257.446 392.284 224.033C392.284 190.621 411.027 120.759 434.142 120.759C457.256 120.759 476 190.621 476 224.033Z" fill="#52A3EE"/>
<path opacity="0.31" d="M476 224.033C476 257.446 457.256 259.964 434.142 259.964C411.027 259.964 392.284 257.446 392.284 224.033C392.284 190.621 411.027 120.759 434.142 120.759C457.256 120.759 476 190.621 476 224.033Z" fill="white"/>
<path d="M448.292 239.221L441.402 239.665L459.405 227.515L446.588 234.035L448.292 228.923L442.439 236.109L435.549 239.591L434.957 215.588L438.661 206.697L434.883 211.735L434.586 197.807L446.07 182.546L434.512 194.325L433.771 163.728L433.179 183.286L425.844 175.137L433.031 187.065L432.067 218.106L425.696 213.958L419.843 203.586L422.14 211.661L410.731 204.178L431.919 222.477L428.734 324.419H437.476L435.624 243.592L437.624 242.184L448.292 239.221Z" fill="#263238"/>
<path d="M15.5613 261.965C15.5613 282.783 27.1926 284.338 41.5651 284.338C55.9376 284.338 67.569 282.783 67.569 261.965C67.569 241.147 55.9376 197.733 41.5651 197.733C27.1926 197.733 15.5613 241.221 15.5613 261.965Z" fill="#52A3EE"/>
<path opacity="0.58" d="M15.5613 261.965C15.5613 282.783 27.1926 284.338 41.5651 284.338C55.9376 284.338 67.569 282.783 67.569 261.965C67.569 241.147 55.9376 197.733 41.5651 197.733C27.1926 197.733 15.5613 241.221 15.5613 261.965Z" fill="white"/>
<path d="M32.749 271.448L37.046 271.744L25.8591 264.113L33.8603 268.188L32.749 265.002L36.4533 269.521L40.7502 271.67L41.0466 256.705L38.824 251.222L41.1207 254.334L41.3429 245.666L34.1567 236.183L41.3429 243.518L41.7874 224.478L42.1578 236.628L46.7511 231.516L42.2319 238.998L42.8987 258.335L46.8252 255.668L50.4554 249.296L49.0478 254.26L56.1599 249.593L42.9728 261.002L44.9731 324.419H39.4908L40.6761 274.115L39.4167 273.3L32.749 271.448Z" fill="#263238"/>
<path d="M-48.3 224.404C-48.3 257.742 -29.6306 260.261 -6.59016 260.261C16.4503 260.261 35.1197 257.742 35.1197 224.404C35.1197 191.065 16.4503 121.5 -6.59016 121.5C-29.6306 121.5 -48.3 191.065 -48.3 224.404Z" fill="#52A3EE"/>
<path opacity="0.31" d="M-48.3 224.404C-48.3 257.742 -29.6306 260.261 -6.59016 260.261C16.4503 260.261 35.1197 257.742 35.1197 224.404C35.1197 191.065 16.4503 121.5 -6.59016 121.5C-29.6306 121.5 -48.3 191.065 -48.3 224.404Z" fill="white"/>
<path d="M-20.6663 239.517L-13.7764 239.962L-31.7791 227.812L-18.8883 234.331L-20.6663 229.293L-14.8136 236.405L-7.92366 239.887L-7.40507 215.958L-11.0352 207.142L-7.33098 212.106L-6.96056 198.252L-18.4437 182.99L-6.88647 194.77L-6.21971 164.247L-5.62703 183.805L1.7074 175.582L-5.47886 187.509L-4.51575 218.477L1.85556 214.328L7.70829 204.03L5.33757 212.031L16.8208 204.549L-4.36758 222.774L-1.18192 324.418H-9.84987L-7.99775 243.814L-10.0721 242.48L-20.6663 239.517Z" fill="#263238"/>
<path d="M224.926 144.688H202.107C200.478 144.688 199.144 143.355 199.144 141.725V136.094C199.144 134.464 200.478 133.131 202.107 133.131H224.926C226.556 133.131 227.889 134.464 227.889 136.094V141.725C227.889 143.355 226.556 144.688 224.926 144.688Z" fill="#263238" stroke="#263238" strokeWidth="0.740851" stroke-miterlimit="10" strokeLinecap="round" strokeLinejoin="round"/>
<path d="M213.887 127.5H211.072V136.242H213.887V127.5Z" fill="#263238" stroke="#263238" strokeWidth="0.740851" stroke-miterlimit="10" strokeLinecap="round" strokeLinejoin="round"/>
<path d="M312.272 190.325L302.196 182.546L288.194 130.76L264.858 127.871L274.933 165.358H157.138L167.213 127.871L143.877 130.76L129.652 183.286L119.058 190.325H312.272ZM267.821 130.76L285.379 132.02L296.64 178.101L280.119 165.284H279.23L267.821 130.76ZM146.766 132.02L164.324 130.76L152.026 168.025L152.47 168.173L135.209 179.656L146.766 132.02Z" fill="#263238" stroke="#263238" strokeWidth="0.740851" stroke-miterlimit="10" strokeLinecap="round" strokeLinejoin="round"/>
<path d="M192.476 192.695L190.772 168.025C190.328 162.172 185.512 157.653 179.585 157.653H156.915C151.063 157.653 146.173 162.172 145.729 168.025L144.025 192.695H192.476Z" fill="#787878" stroke="#263238" strokeWidth="0.740851" stroke-miterlimit="10" strokeLinecap="round" strokeLinejoin="round"/>
<path d="M281.823 192.695L280.119 168.025C279.674 162.172 274.859 157.653 268.932 157.653H246.262C240.409 157.653 235.52 162.172 235.075 168.025L233.371 192.695H281.823Z" fill="#787878" stroke="#263238" strokeWidth="0.740851" stroke-miterlimit="10" strokeLinecap="round" strokeLinejoin="round"/>
<path d="M162.546 139.428C162.546 139.428 158.175 136.317 155.508 137.798C152.841 139.28 147.21 154.986 146.395 158.468C145.58 161.95 150.766 164.913 154.248 165.951C157.73 166.988 164.769 164.691 166.472 163.061C168.176 161.357 162.546 139.428 162.546 139.428Z" fill="#263238" stroke="#263238" strokeWidth="0.740851" stroke-miterlimit="10"/>
<path d="M191.884 193.362C191.587 192.547 191.439 192.028 191.439 192.028C191.439 192.028 188.402 175.878 187.661 174.619C186.92 173.359 177.511 169.136 177.511 169.136L161.287 168.247C161.287 168.247 149.137 174.174 148.988 174.915C148.914 175.285 146.618 184.694 144.469 193.362H191.884Z" fill="#B2B2B2" stroke="#263238" strokeWidth="0.740851" stroke-miterlimit="10"/>
<path d="M153.804 181.286C154.767 184.027 155.434 185.953 155.804 188.472" stroke="#263238" strokeWidth="0.740851" stroke-miterlimit="10"/>
<path d="M185.66 182.397C185.142 184.175 183.808 186.546 184.253 188.398" stroke="#263238" strokeWidth="0.740851" stroke-miterlimit="10"/>
<path d="M170.399 133.872C170.399 133.872 160.694 136.539 158.027 141.725C155.36 146.911 155.137 148.096 156.693 150.615C158.249 153.134 161.953 157.579 165.435 159.357C168.917 161.135 180.03 158.542 180.03 158.542C180.03 158.542 183.438 156.986 184.475 154.319C185.586 151.652 187.957 147.874 186.327 143.873C184.697 139.873 177.585 134.316 175.289 133.649C173.214 133.131 170.399 133.872 170.399 133.872Z" fill="#263238" stroke="#263238" strokeWidth="0.740851" stroke-miterlimit="10"/>
<path d="M177.437 140.688C177.437 140.688 172.622 143.651 170.177 145.355C167.732 147.059 164.769 148.096 164.769 148.096C164.769 148.096 162.546 149.059 163.065 151.652C163.583 154.245 164.472 163.209 164.472 163.209L162.768 166.84L169.955 174.767L175.659 167.358L176.252 163.506C176.252 163.506 181.438 160.32 181.586 159.579C181.734 158.838 183.216 147.948 183.068 146.837C182.919 145.799 177.437 140.688 177.437 140.688Z" fill="white" stroke="#263238" strokeWidth="0.740851" stroke-miterlimit="10"/>
<path d="M178.252 148.318C178.252 148.318 177.956 150.763 177.956 151.06C177.956 151.356 180.104 153.282 179.289 154.023C178.474 154.764 176.844 155.208 176.844 155.208" stroke="#263238" strokeWidth="0.740851" stroke-miterlimit="10" strokeLinecap="round" strokeLinejoin="round"/>
<path d="M177.215 157.431C177.215 157.431 176.326 158.394 174.326 156.32" stroke="#263238" strokeWidth="0.740851" stroke-miterlimit="10" strokeLinecap="round" strokeLinejoin="round"/>
<path d="M176.178 163.58C176.178 163.58 174.103 163.358 173.363 162.839C172.548 162.32 170.251 160.542 170.251 160.542L174.844 168.395L175.659 167.432L176.178 163.58Z" fill="#263238" stroke="#263238" strokeWidth="0.740851" stroke-miterlimit="10" strokeLinecap="round" strokeLinejoin="round"/>
<path d="M165.658 150.467C165.658 150.467 163.954 145.355 161.953 148.244C159.953 151.134 163.139 155.134 164.62 155.06" fill="white"/>
<path d="M165.658 150.467C165.658 150.467 163.954 145.355 161.953 148.244C159.953 151.134 163.139 155.134 164.62 155.06" stroke="#263238" strokeWidth="0.740851" stroke-miterlimit="10"/>
<path d="M173.881 151.282C174.29 151.282 174.622 150.784 174.622 150.17C174.622 149.557 174.29 149.059 173.881 149.059C173.472 149.059 173.14 149.557 173.14 150.17C173.14 150.784 173.472 151.282 173.881 151.282Z" fill="#263238"/>
<path d="M180.549 151.282C180.958 151.282 181.29 150.784 181.29 150.17C181.29 149.557 180.958 149.059 180.549 149.059C180.14 149.059 179.808 149.557 179.808 150.17C179.808 150.784 180.14 151.282 180.549 151.282Z" fill="#263238"/>
<path d="M171.807 147.874C171.807 147.874 173.437 146.244 175.585 147.503" stroke="#263238" strokeWidth="0.740851" stroke-miterlimit="10" strokeLinecap="round" strokeLinejoin="round"/>
<path d="M179.067 147.355C179.067 147.355 181.512 146.392 182.031 148.244" stroke="#263238" strokeWidth="0.740851" stroke-miterlimit="10" strokeLinecap="round" strokeLinejoin="round"/>
<path d="M162.694 164.173L168.991 172.174L164.695 176.767L159.805 168.099L162.694 164.173Z" fill="white" stroke="#263238" strokeWidth="0.740851" stroke-miterlimit="10"/>
<path d="M142.543 133.427L171.733 192.399H163.879L140.395 135.279" fill="#263238"/>
<path d="M142.543 133.427L171.733 192.399H163.879L140.395 135.279" stroke="#263238" strokeWidth="0.740851" stroke-miterlimit="10" strokeLinecap="round" strokeLinejoin="round"/>
<path d="M168.991 172.174L169.88 174.841L167.732 173.729L168.991 172.174Z" fill="white" stroke="#263238" strokeWidth="0.740851" stroke-miterlimit="10"/>
<path d="M171.214 170.766L174.251 176.767L178.919 168.914L175.807 166.395L171.214 170.766Z" fill="white" stroke="#263238" strokeWidth="0.740851" stroke-miterlimit="10"/>
<path d="M171.214 170.766L169.88 174.841L172.103 172.692L171.214 170.766Z" fill="white" stroke="#263238" strokeWidth="0.740851" stroke-miterlimit="10"/>
<path d="M297.233 198.029C297.751 196.918 300.344 190.991 299.381 189.436C294.121 180.545 292.565 186.472 290.639 182.027C287.453 174.544 284.786 169.359 283.675 168.618C281.453 167.136 267.006 164.321 267.006 164.321L249.3 163.876C249.3 163.876 234.038 170.099 233.001 171.507C232.556 172.1 229.297 176.026 227 181.583C226.778 182.175 221.518 186.398 221.221 186.917C218.703 192.992 221.073 197.14 221.666 198.104H297.233V198.029Z" fill="white" stroke="#263238" strokeWidth="0.740851" stroke-miterlimit="10" strokeLinecap="round" strokeLinejoin="round"/>
<path d="M238.409 177.73C238.557 183.879 238.557 189.658 238.854 195.733" stroke="#263238" strokeWidth="0.740851" stroke-miterlimit="10" strokeLinecap="round" strokeLinejoin="round"/>
<path d="M238.335 174.1L238.409 175.878" stroke="#263238" strokeWidth="0.740851" stroke-miterlimit="10" strokeLinecap="round" strokeLinejoin="round"/>
<path d="M279.082 177.137C278.712 181.805 278.341 186.546 278.045 191.214C277.897 192.695 277.822 194.177 277.674 195.733" stroke="#263238" strokeWidth="0.740851" stroke-miterlimit="10" strokeLinecap="round" strokeLinejoin="round"/>
<path d="M279.378 173.729L279.23 174.989" stroke="#263238" strokeWidth="0.740851" stroke-miterlimit="10" strokeLinecap="round" strokeLinejoin="round"/>
<path d="M254.189 183.879C254.337 187.139 254.041 193.732 253.745 198.029H265.598C265.006 192.917 264.117 184.546 263.894 182.768C263.598 180.101 260.042 172.396 260.042 172.396L262.338 169.358L258.19 164.987L255.523 169.136L257.671 172.618C257.597 172.692 253.893 178.767 254.189 183.879Z" fill="#52A3EE" stroke="#263238" strokeWidth="0.740851" stroke-miterlimit="10" strokeLinecap="round" strokeLinejoin="round"/>
<path d="M251.67 157.06L250.929 162.543L258.782 166.914L265.821 162.691L265.524 158.616L251.67 157.06Z" fill="white" stroke="#263238" strokeWidth="0.740851" stroke-miterlimit="10" strokeLinecap="round" strokeLinejoin="round"/>
<path d="M250.929 162.543L253.597 164.024L258.042 162.172L253.078 157.208L251.67 157.06L250.929 162.543Z" fill="#263238" stroke="#263238" strokeWidth="0.740851" stroke-miterlimit="10" strokeLinecap="round" strokeLinejoin="round"/>
<path d="M251.077 135.057C251.077 135.057 248.484 136.909 248.262 139.65C248.04 142.392 249.448 154.838 251.003 157.653C252.485 160.468 254.263 162.691 257.893 163.358C261.523 164.024 265.82 160.394 266.265 158.69C266.709 156.986 268.487 148.318 268.487 145.059C268.487 141.799 268.858 138.02 265.894 135.353C262.931 132.612 258.041 132.094 255.745 132.538C253.448 132.983 251.077 135.057 251.077 135.057Z" fill="white" stroke="#263238" strokeWidth="0.740851" stroke-miterlimit="10" strokeLinecap="round" strokeLinejoin="round"/>
<path d="M265.969 135.353C263.005 132.612 258.116 132.094 255.819 132.538C253.448 132.983 251.152 135.057 251.152 135.057C251.152 135.057 248.559 136.909 248.336 139.65C248.262 140.984 248.559 144.614 249.003 148.318C249.225 148.318 249.448 148.244 249.448 147.577C249.448 146.466 248.781 145.799 249.67 144.836C250.485 143.873 251.818 142.614 252.559 141.354C253.3 140.169 253.152 138.243 253.152 138.243C253.152 138.243 254.856 139.65 258.19 140.021C261.523 140.391 265.228 140.391 265.746 140.465C266.339 140.539 265.524 141.132 266.413 142.243C267.228 143.355 267.598 143.947 267.747 144.466C267.821 144.984 268.265 147.652 268.339 148.392C268.562 146.985 268.636 145.799 268.636 144.91C268.562 141.799 268.932 138.095 265.969 135.353Z" fill="#263238" stroke="#263238" strokeWidth="0.740851" stroke-miterlimit="10" strokeLinecap="round" strokeLinejoin="round"/>
<path d="M256.782 152.615C256.782 152.615 258.338 153.653 259.375 153.43C260.412 153.208 261.449 152.467 261.449 152.467" stroke="#263238" strokeWidth="0.740851" stroke-miterlimit="10" strokeLinecap="round" strokeLinejoin="round"/>
<path d="M261.598 145.651C261.598 145.651 263.746 144.095 265.895 145.874" stroke="#263238" strokeWidth="0.740851" stroke-miterlimit="10" strokeLinecap="round" strokeLinejoin="round"/>
<path d="M257.078 145.799C257.078 145.799 254.56 144.095 252.781 146.17" stroke="#263238" strokeWidth="0.740851" stroke-miterlimit="10" strokeLinecap="round" strokeLinejoin="round"/>
<path d="M255.671 147.578C255.671 148.022 255.448 148.392 255.152 148.392C254.856 148.392 254.634 148.022 254.634 147.578C254.634 147.133 254.856 146.763 255.152 146.763C255.448 146.763 255.671 147.133 255.671 147.578Z" fill="#263238"/>
<path d="M263.45 147.578C263.45 148.022 263.228 148.392 262.931 148.392C262.635 148.392 262.413 148.022 262.413 147.578C262.413 147.133 262.635 146.763 262.931 146.763C263.228 146.763 263.45 147.133 263.45 147.578Z" fill="#263238"/>
<path d="M255.152 155.727C255.152 155.727 258.782 157.283 262.412 155.653" stroke="#263238" strokeWidth="0.740851" stroke-miterlimit="10" strokeLinecap="round" strokeLinejoin="round"/>
<path d="M248.855 146.689C248.855 146.689 247.373 145.503 246.781 147.652C246.188 149.8 249.67 152.615 249.67 152.615L248.855 146.689Z" fill="white" stroke="#263238" strokeWidth="0.740851" stroke-miterlimit="10" strokeLinecap="round" strokeLinejoin="round"/>
<path d="M268.487 147.059C268.487 147.059 269.302 145.651 270.043 147.429C270.784 149.207 267.45 153.134 267.45 153.134L268.487 147.059Z" fill="white" stroke="#263238" strokeWidth="0.740851" stroke-miterlimit="10" strokeLinecap="round" strokeLinejoin="round"/>
<path d="M259.227 154.319C259.227 154.319 254.782 153.727 253.819 155.208C253.004 156.468 253.448 160.098 254.189 161.802C255.152 162.543 256.412 163.135 257.893 163.432C259.671 163.728 261.672 162.987 263.227 162.024C263.598 161.506 264.116 160.172 263.968 156.912C263.82 154.171 262.709 153.949 259.227 154.319ZM262.561 160.32C262.561 160.32 261.079 161.431 259.005 161.357C258.264 161.357 255.819 161.283 255.004 160.468C254.189 159.653 253.522 156.394 254.337 155.356C255.152 154.319 259.153 154.764 259.153 154.764C262.338 154.542 263.302 154.69 263.45 156.542C263.746 159.95 262.561 160.32 262.561 160.32Z" fill="#263238" stroke="#263238" strokeWidth="0.740851" stroke-miterlimit="10" strokeLinecap="round" strokeLinejoin="round"/>
<path d="M260.264 159.876C260.264 160.246 259.745 161.431 259.079 161.431C258.412 161.431 257.893 160.32 257.893 159.876C257.893 159.505 258.412 159.209 259.079 159.209C259.671 159.209 260.264 159.505 260.264 159.876Z" fill="#263238" stroke="#263238" strokeWidth="0.740851" stroke-miterlimit="10" strokeLinecap="round" strokeLinejoin="round"/>
<path d="M258.783 166.914L252.041 173.211L248.411 163.654L250.707 161.802L258.783 166.914Z" fill="white" stroke="#263238" strokeWidth="0.740851" stroke-miterlimit="10" strokeLinecap="round" strokeLinejoin="round"/>
<path d="M258.782 166.914L264.265 174.026L267.821 164.617L265.821 162.691L258.782 166.914Z" fill="white" stroke="#263238" strokeWidth="0.740851" stroke-miterlimit="10" strokeLinecap="round" strokeLinejoin="round"/>
<path d="M288.194 133.427L245.003 192.399H252.856L290.343 135.279" fill="#263238"/>
<path d="M288.194 133.427L245.003 192.399H252.856L290.343 135.279" stroke="#263238" strokeWidth="0.740851" stroke-miterlimit="10" strokeLinecap="round" strokeLinejoin="round"/>
<path d="M218.851 198.029H229.741C230.778 196.844 231.815 195.436 232.038 195.066C232.482 194.473 233.742 192.399 233.001 189.51C232.186 186.62 229.519 184.99 229.519 184.99L226.63 185.583C226.63 185.583 224.185 184.768 222.333 185.583C220.48 186.398 218.036 189.139 217.147 192.399C216.406 194.992 217.591 196.918 218.851 198.029Z" fill="white" stroke="#263238" strokeWidth="0.740851" stroke-miterlimit="10" strokeLinecap="round" strokeLinejoin="round"/>
<path d="M225.815 186.176C223.814 188.991 222.333 192.621 224.481 195.733" stroke="#263238" strokeWidth="0.740851" stroke-miterlimit="10" strokeLinecap="round" strokeLinejoin="round"/>
<path d="M242.335 182.175C242.335 182.175 244.262 181.731 244.854 182.101C245.521 182.472 246.188 183.879 246.558 184.546C246.855 185.287 246.41 185.879 245.373 186.028C244.336 186.176 243.002 184.842 243.002 184.842L242.335 182.175Z" fill="white" stroke="#263238" strokeWidth="0.740851" stroke-miterlimit="10" strokeLinecap="round" strokeLinejoin="round"/>
<path d="M281.971 186.472L280.415 184.472L264.339 194.547H252.856L237.002 185.509L235.668 186.917L243.447 198.029H272.933L281.971 186.472Z" fill="#263238" stroke="#263238" strokeWidth="0.740851" stroke-miterlimit="10" strokeLinecap="round" strokeLinejoin="round"/>
<path d="M234.853 198.029C235.594 185.435 245.966 175.508 258.708 175.508C271.451 175.508 281.897 185.509 282.564 198.029H286.342C285.601 183.361 273.525 171.655 258.634 171.655C243.817 171.655 231.667 183.361 230.927 198.029H234.853Z" fill="#263238" stroke="#263238" strokeWidth="0.740851" stroke-miterlimit="10" strokeLinecap="round" strokeLinejoin="round"/>
<path d="M231.889 180.249C231.889 180.249 227 187.287 226.852 189.732C226.704 192.177 227.815 194.77 230.186 195.14C232.556 195.511 233.001 194.029 233.001 194.029C233.001 194.029 238.187 195.14 238.409 195.14C238.631 195.14 239.224 194.918 239.372 194.325C239.52 193.732 239.965 193.066 239.965 193.066C239.965 193.066 240.706 192.621 241.15 191.732C241.595 190.843 241.817 190.473 241.817 190.473C241.817 190.473 242.706 189.213 242.854 188.621C243.002 188.028 243.002 186.991 243.002 186.991C243.002 186.991 243.817 185.954 243.743 184.842C243.669 183.731 242.558 181.731 240.261 180.471C237.964 179.212 234.705 178.619 233.519 178.767C232.334 178.99 231.889 180.249 231.889 180.249Z" fill="white" stroke="#263238" strokeWidth="0.740851" stroke-miterlimit="10" strokeLinecap="round" strokeLinejoin="round"/>
<path d="M236.409 183.286L242.928 186.991" stroke="#263238" strokeWidth="0.740851" stroke-miterlimit="10" strokeLinecap="round" strokeLinejoin="round"/>
<path d="M234.927 182.397L235.742 182.842" stroke="#263238" strokeWidth="0.740851" stroke-miterlimit="10" strokeLinecap="round" strokeLinejoin="round"/>
<path d="M233.001 185.879L241.743 190.473" stroke="#263238" strokeWidth="0.740851" stroke-miterlimit="10" strokeLinecap="round" strokeLinejoin="round"/>
<path d="M234.186 190.547L239.891 193.066" stroke="#263238" strokeWidth="0.740851" stroke-miterlimit="10" strokeLinecap="round" strokeLinejoin="round"/>
<path d="M232.186 189.658L233.297 190.176" stroke="#263238" strokeWidth="0.740851" stroke-miterlimit="10" strokeLinecap="round" strokeLinejoin="round"/>
<path d="M288.12 198.029H299.011C300.27 196.918 301.455 194.992 300.715 192.399C299.752 189.139 297.381 186.398 295.529 185.583C293.677 184.768 291.232 185.583 291.232 185.583L288.342 184.99C288.342 184.99 285.675 186.62 284.86 189.51C284.045 192.399 285.305 194.473 285.824 195.066C286.12 195.436 287.083 196.844 288.12 198.029Z" fill="white" stroke="#263238" strokeWidth="0.740851" stroke-miterlimit="10" strokeLinecap="round" strokeLinejoin="round"/>
<path d="M294.121 194.325C293.973 194.77 293.751 195.214 293.454 195.659" stroke="#263238" strokeWidth="0.740851" stroke-miterlimit="10" strokeLinecap="round" strokeLinejoin="round"/>
<path d="M292.121 186.176C293.602 188.25 294.788 190.695 294.417 193.14" stroke="#263238" strokeWidth="0.740851" stroke-miterlimit="10" strokeLinecap="round" strokeLinejoin="round"/>
<path d="M275.6 182.175C275.6 182.175 273.674 181.731 273.081 182.101C272.414 182.472 271.747 183.879 271.377 184.546C271.081 185.287 271.525 185.879 272.562 186.028C273.6 186.176 274.933 184.842 274.933 184.842L275.6 182.175Z" fill="white" stroke="#263238" strokeWidth="0.740851" stroke-miterlimit="10" strokeLinecap="round" strokeLinejoin="round"/>
<path d="M286.046 180.249C286.046 180.249 290.935 187.287 291.083 189.732C291.232 192.177 290.12 194.77 287.75 195.14C285.379 195.511 284.934 194.029 284.934 194.029C284.934 194.029 279.748 195.14 279.526 195.14C279.304 195.14 278.711 194.918 278.563 194.325C278.415 193.732 277.97 193.066 277.97 193.066C277.97 193.066 277.23 192.621 276.785 191.732C276.34 190.843 276.118 190.473 276.118 190.473C276.118 190.473 275.229 189.213 275.081 188.621C274.933 188.028 274.933 186.991 274.933 186.991C274.933 186.991 274.118 185.954 274.192 184.842C274.266 183.731 275.377 181.731 277.674 180.471C279.971 179.212 283.23 178.619 284.416 178.767C285.601 178.99 286.046 180.249 286.046 180.249Z" fill="white" stroke="#263238" strokeWidth="0.740851" stroke-miterlimit="10" strokeLinecap="round" strokeLinejoin="round"/>
<path d="M281.526 183.286L274.933 186.991" stroke="#263238" strokeWidth="0.740851" stroke-miterlimit="10" strokeLinecap="round" strokeLinejoin="round"/>
<path d="M283.008 182.397L282.193 182.842" stroke="#263238" strokeWidth="0.740851" stroke-miterlimit="10" strokeLinecap="round" strokeLinejoin="round"/>
<path d="M284.934 185.879L276.118 190.473" stroke="#263238" strokeWidth="0.740851" stroke-miterlimit="10" strokeLinecap="round" strokeLinejoin="round"/>
<path d="M283.749 190.547L277.97 193.066" stroke="#263238" strokeWidth="0.740851" stroke-miterlimit="10" strokeLinecap="round" strokeLinejoin="round"/>
<path d="M285.749 189.658L284.564 190.176" stroke="#263238" strokeWidth="0.740851" stroke-miterlimit="10" strokeLinecap="round" strokeLinejoin="round"/>
<path d="M308.42 246.703V293.525H125.429V246.703H91.054V315.084C91.054 320.418 95.3509 324.715 100.685 324.715H115.872C121.207 324.715 125.504 320.418 125.504 315.084V311.898H142.099L149.877 306.934H283.156L293.084 312.639H308.345V315.084C308.345 320.418 312.642 324.715 317.976 324.715H333.164C338.498 324.715 342.795 320.418 342.795 315.084V246.703H308.42Z" fill="#263238" stroke="#263238" strokeWidth="0.740851" stroke-miterlimit="10" strokeLinecap="round" strokeLinejoin="round"/>
<path d="M335.683 212.995C334.423 210.476 325.089 200.771 323.237 198.77C323.014 198.548 322.866 198.326 322.718 198.029C320.421 193.658 301.159 143.947 297.751 137.65C291.528 126.093 286.564 127.797 279.897 126.982C279.675 126.982 279.526 126.982 279.304 126.982L229 124.463C220.703 124.018 212.405 124.018 204.108 124.463C190.476 125.13 176.844 125.796 163.213 126.537C151.878 127.13 140.913 126.389 134.616 137.724C131.134 144.021 111.946 193.732 109.649 198.103C109.501 198.4 109.353 198.622 109.131 198.844C107.279 200.771 97.9439 210.476 96.6844 213.069C95.2768 215.884 89.5723 226.552 89.5723 228.701C89.5723 230.553 90.9058 260.854 96.6844 284.635C98.3884 291.747 103.797 297.377 110.835 299.378C111.353 299.526 111.724 299.6 111.872 299.6H156.175C157.36 299.6 158.471 298.933 159.064 297.97L169.51 279.893C169.732 279.523 169.955 279.227 170.325 278.93C171.955 277.597 177.511 273.67 185.735 273.67C192.995 273.67 207.071 273.67 214.109 273.67C216.702 273.67 218.332 273.67 218.332 273.67C225.37 273.67 239.446 273.67 246.707 273.67C254.93 273.67 260.486 277.597 262.116 278.93C262.413 279.153 262.709 279.523 262.931 279.893L273.377 297.97C273.97 299.007 275.081 299.6 276.267 299.6H320.421C320.644 299.6 321.014 299.526 321.459 299.378C328.497 297.377 333.831 291.747 335.609 284.635C341.461 260.854 342.721 230.553 342.721 228.701C342.795 226.478 337.09 215.884 335.683 212.995ZM119.058 190.325C127.948 172.989 144.617 133.798 144.617 133.798C225.815 125.648 288.194 133.427 288.194 133.427L312.272 190.325C257.375 184.99 119.058 190.325 119.058 190.325Z" fill="#52A3EE" stroke="#263238" strokeWidth="0.740851" stroke-miterlimit="10" strokeLinecap="round" strokeLinejoin="round"/>
<path d="M158.101 299.526L155.656 305.23H276.192L274.414 299.526L262.635 279.301C262.635 279.301 258.042 273.966 246.707 273.596C235.372 273.226 185.735 273.596 185.735 273.596C185.735 273.596 177.215 272.855 169.806 279.301L158.101 299.526Z" fill="#787878" stroke="#263238" strokeWidth="0.740851" stroke-miterlimit="10" strokeLinecap="round" strokeLinejoin="round"/>
<path d="M168.325 232.183C168.325 232.183 177.882 249.222 180.697 252.037C183.512 254.853 186.698 254.853 190.624 255.223C194.551 255.594 248.04 255.223 248.04 255.223C248.04 255.223 252.263 254.482 254.412 251.297C256.56 248.111 263.598 232.183 263.598 232.183H168.325Z" fill="#263238" stroke="#263238" strokeWidth="0.740851" stroke-miterlimit="10" strokeLinecap="round" strokeLinejoin="round"/>
<path d="M177.882 234.479C177.882 234.479 185.512 248.111 187.809 250.408C190.106 252.704 192.625 252.704 195.736 252.926C198.848 253.149 241.743 252.926 241.743 252.926C241.743 252.926 245.151 252.334 246.855 249.815C248.559 247.296 254.263 234.479 254.263 234.479H177.882Z" fill="#787878" stroke="#263238" strokeWidth="0.740851" stroke-miterlimit="10" strokeLinecap="round" strokeLinejoin="round"/>
<path d="M256.041 293.525L253.893 287.672C252.559 283.968 249.003 281.523 245.077 281.597L187.513 282.19C183.438 282.264 179.956 285.005 178.845 288.932L177.437 293.525H256.041Z" fill="#263238" stroke="#263238" strokeWidth="0.740851" stroke-miterlimit="10" strokeLinecap="round" strokeLinejoin="round"/>
<path d="M176.474 296.34L174.77 301.971H259.079L257.079 296.34H176.474Z" fill="#263238" stroke="#263238" strokeWidth="0.740851" stroke-miterlimit="10" strokeLinecap="round" strokeLinejoin="round"/>
<path d="M322.94 198.474C322.94 198.474 324.718 184.62 327.904 184.62C331.09 184.62 345.24 188.546 345.61 191.362C345.981 194.177 342.795 197.363 339.906 198.103C337.09 198.844 331.015 199.511 331.015 199.511L329.608 204.845L322.94 198.474Z" fill="#263238" stroke="#263238" strokeWidth="0.740851" stroke-miterlimit="10" strokeLinecap="round" strokeLinejoin="round"/>
<path d="M109.501 198.474C109.501 198.474 107.723 184.62 104.537 184.62C101.352 184.62 87.2014 188.546 86.831 191.362C86.4606 194.177 89.6463 197.363 92.5356 198.103C95.3508 198.844 101.426 199.511 101.426 199.511L102.833 204.845L109.501 198.474Z" fill="#263238" stroke="#263238" strokeWidth="0.740851" stroke-miterlimit="10" strokeLinecap="round" strokeLinejoin="round"/>
<path d="M150.618 230.405C150.618 230.405 156.99 237.146 159.138 249.518C159.138 249.518 128.985 248.111 117.28 243.518C105.574 238.924 104.167 238.554 103.796 236.405C103.426 234.257 104.537 219.07 109.131 216.551C113.724 214.106 118.688 214.773 123.281 218.329C127.874 221.885 133.579 227.219 136.764 228.256C140.024 229.293 150.618 230.405 150.618 230.405Z" fill="white" stroke="#263238" strokeWidth="0.740851" stroke-miterlimit="10" strokeLinecap="round" strokeLinejoin="round"/>
<path d="M129.949 231.442C129.949 236.035 126.244 239.739 121.651 239.739C117.058 239.739 113.354 236.035 113.354 231.442C113.354 226.848 117.058 223.144 121.651 223.144C126.244 223.144 129.949 226.848 129.949 231.442Z" fill="white" stroke="#263238" strokeWidth="0.740851" stroke-miterlimit="10" strokeLinecap="round" strokeLinejoin="round"/>
<path d="M144.84 241.814C144.84 243.962 143.136 245.666 140.987 245.666C138.839 245.666 137.135 243.962 137.135 241.814C137.135 239.665 138.839 237.961 140.987 237.961C143.062 237.961 144.84 239.665 144.84 241.814Z" fill="white" stroke="#263238" strokeWidth="0.740851" stroke-miterlimit="10" strokeLinecap="round" strokeLinejoin="round"/>
<path d="M282.786 230.405C282.786 230.405 276.415 237.146 274.266 249.518C274.266 249.518 304.419 248.111 316.124 243.518C327.83 238.924 329.237 238.554 329.608 236.405C329.978 234.257 328.867 219.07 324.274 216.551C319.68 214.106 314.717 214.773 310.123 218.329C305.53 221.885 299.825 227.219 296.64 228.256C293.454 229.293 282.786 230.405 282.786 230.405Z" fill="white" stroke="#263238" strokeWidth="0.740851" stroke-miterlimit="10" strokeLinecap="round" strokeLinejoin="round"/>
<path d="M305.382 231.442C305.382 236.035 309.086 239.739 313.679 239.739C318.273 239.739 321.977 236.035 321.977 231.442C321.977 226.848 318.273 223.144 313.679 223.144C309.086 223.144 305.382 226.848 305.382 231.442Z" fill="white" stroke="#263238" strokeWidth="0.740851" stroke-miterlimit="10" strokeLinecap="round" strokeLinejoin="round"/>
<path d="M290.491 241.814C290.491 243.962 292.195 245.666 294.343 245.666C296.492 245.666 298.196 243.962 298.196 241.814C298.196 239.665 296.492 237.961 294.343 237.961C292.195 237.961 290.491 239.665 290.491 241.814Z" fill="white" stroke="#263238" strokeWidth="0.740851" stroke-miterlimit="10" strokeLinecap="round" strokeLinejoin="round"/>
<path d="M320.792 261.965C320.792 261.965 287.824 268.336 286.416 269.373C285.009 270.41 282.193 276.485 282.193 276.485L288.935 274.707C288.935 274.707 304.567 275.448 309.827 272.929C315.087 270.484 320.792 261.965 320.792 261.965Z" fill="#263238" stroke="#263238" strokeWidth="0.740851" stroke-miterlimit="10" strokeLinecap="round" strokeLinejoin="round"/>
<path d="M114.094 261.965C114.094 261.965 147.062 268.336 148.47 269.373C149.877 270.41 152.693 276.485 152.693 276.485L145.951 274.707C145.951 274.707 130.319 275.448 125.059 272.929C119.799 270.484 114.094 261.965 114.094 261.965Z" fill="#263238" stroke="#263238" strokeWidth="0.740851" stroke-miterlimit="10" strokeLinecap="round" strokeLinejoin="round"/>
<path d="M279.452 235.813L270.636 232.923H263.746" stroke="#263238" strokeWidth="0.740851" stroke-miterlimit="10" strokeLinecap="round" strokeLinejoin="round"/>
<path d="M154.545 235.442L160.397 232.109L168.325 232.183" stroke="#263238" strokeWidth="0.740851" stroke-miterlimit="10" strokeLinecap="round" strokeLinejoin="round"/>
<path d="M304.419 196.177C305.308 195.659 306.197 195.214 307.16 194.77" stroke="#263238" strokeWidth="0.740851" stroke-miterlimit="10" strokeLinecap="round" strokeLinejoin="round"/>
<path d="M265.376 246.555C270.932 234.331 283.601 210.105 301.307 198.177" stroke="#263238" strokeWidth="0.740851" stroke-miterlimit="10" strokeLinecap="round" strokeLinejoin="round"/>
<path d="M262.264 253.89C262.264 253.89 262.709 252.704 263.524 250.704" stroke="#263238" strokeWidth="0.740851" stroke-miterlimit="10" strokeLinecap="round" strokeLinejoin="round"/>
<path d="M130.986 198.103C129.504 197.214 128.022 196.4 126.392 195.585" stroke="#263238" strokeWidth="0.740851" stroke-miterlimit="10" strokeLinecap="round" strokeLinejoin="round"/>
<path d="M166.547 246.777C162.916 235.961 153.434 213.513 134.171 200.104" stroke="#263238" strokeWidth="0.740851" stroke-miterlimit="10" strokeLinecap="round" strokeLinejoin="round"/>
<path d="M168.399 253C168.399 253 168.102 251.889 167.584 249.889" stroke="#263238" strokeWidth="0.740851" stroke-miterlimit="10" strokeLinecap="round" strokeLinejoin="round"/>
<path d="M116.391 215.291C116.391 215.291 112.613 206.105 112.613 200.622L116.391 215.291Z" fill="white"/>
<path d="M116.391 215.291C116.391 215.291 112.613 206.105 112.613 200.622" stroke="#263238" strokeWidth="0.740851" stroke-miterlimit="10" strokeLinecap="round" strokeLinejoin="round"/>
<path d="M318.051 214.847C318.051 214.847 319.31 210.624 320.125 203.141L318.051 214.847Z" fill="white"/>
<path d="M318.051 214.847C318.051 214.847 319.31 210.624 320.125 203.141" stroke="#263238" strokeWidth="0.740851" stroke-miterlimit="10" strokeLinecap="round" strokeLinejoin="round"/>
<path d="M331.015 254.26L328.496 286.931L281.971 289.006C281.971 289.006 273.97 279.375 273.599 275.152C273.155 270.929 279.082 264.706 280.712 264.261C282.341 263.817 311.753 257.964 311.753 257.964" stroke="#263238" strokeWidth="0.740851" stroke-miterlimit="10" strokeLinecap="round" strokeLinejoin="round"/>
<path d="M103.352 254.26L105.871 286.931L152.396 289.006C152.396 289.006 160.398 279.375 160.768 275.152C161.212 270.929 155.286 264.706 153.656 264.261C151.952 263.817 122.614 257.964 122.614 257.964" stroke="#263238" strokeWidth="0.740851" stroke-miterlimit="10" strokeLinecap="round" strokeLinejoin="round"/>
<path d="M181.141 240.036L215.369 242.777C216.85 242.925 218.258 242.925 219.74 242.777L251.3 240.332" stroke="#263238" strokeWidth="0.740851" stroke-miterlimit="10" strokeLinecap="round" strokeLinejoin="round"/>
<path d="M183.438 243.666L215.369 246.259C216.85 246.407 218.258 246.407 219.74 246.259L250.189 243.888" stroke="#263238" strokeWidth="0.740851" stroke-miterlimit="10" strokeLinecap="round" strokeLinejoin="round"/>
<path d="M185.735 247.222L215.369 249.593C216.85 249.741 218.258 249.741 219.74 249.593L248.633 247.37" stroke="#263238" strokeWidth="0.740851" stroke-miterlimit="10" strokeLinecap="round" strokeLinejoin="round"/>
<path d="M119.058 190.325C119.058 190.325 257.301 184.99 312.272 190.325L288.194 133.427C288.194 133.427 225.815 125.648 144.617 133.798C144.617 133.798 127.948 172.989 119.058 190.325Z" stroke="#263238" strokeWidth="0.740851" stroke-miterlimit="10" strokeLinecap="round" strokeLinejoin="round"/>
</g>
<defs>
<clipPath id="clip0_1_138">
<rect width="524.3" height="325.085" fill="white" transform="translate(-48.3)"/>
</clipPath>
</defs>
</svg>
